<svg width="23" height="22" viewBox="0 0 23 22" fill="none" xmlns="http://www.w3.org/2000/svg">
<path d="M21.3971 21L19.3971 19M10.8971 20C12.1447 20 13.38 19.7543 14.5326 19.2769C15.6852 18.7994 16.7325 18.0997 17.6147 17.2175C18.4968 16.3354 19.1966 15.2881 19.674 14.1355C20.1514 12.9829 20.3971 11.7476 20.3971 10.5C20.3971 9.25244 20.1514 8.0171 19.674 6.86451C19.1966 5.71191 18.4968 4.66464 17.6147 3.78249C16.7325 2.90033 15.6852 2.20056 14.5326 1.72314C13.38 1.24572 12.1447 1 10.8971 1C8.37758 1 5.96122 2.00089 4.17963 3.78249C2.39803 5.56408 1.39714 7.98044 1.39714 10.5C1.39714 13.0196 2.39803 15.4359 4.17963 17.2175C5.96122 18.9991 8.37758 20 10.8971 20V20Z" stroke="#183E9F" stroke-width="1.5" stroke-linecap="round" stroke-linejoin="round"/>
</svg>
